<svg xmlns="http://www.w3.org/2000/svg" class="iconLeft" width="150" viewBox="0 0 300 300"><path fill="transparent" d="M0 0h300v300H0z" class="logo-background-square"/><path fill="#FFFFFF" d="M119.822 168.392q-6.178 0-8.912-3.373-2.734-3.373-2.734-9.267 0-6.604 3.018-9.693 2.983-3.054 8.131-3.054 5.042 0 7.385 2.273 2.344 2.272 2.344 7.172 0 1.669-.142 3.018h-14.487v1.35q0 4.33 1.776 6.284 1.775 1.953 5.148 1.953 2.983 0 7.066-1.137l.39 1.953q-3.763 2.521-8.983 2.521Zm-5.29-15.303 8.557-.497v-1.1q0-2.7-.781-4.048-.746-1.385-2.734-1.385-2.734 0-3.8 1.669-1.1 1.668-1.242 5.361Zm28.653 15.303q-5.716 0-8.45-3.515-2.734-3.48-2.734-9.125 0-5.752 2.698-9.267 2.699-3.48 8.486-3.48 2.38 0 4.367.355 1.989.39 4.084 1.172l-.959 6.675h-2.485l-1.101-4.545q-1.633-.639-3.409-.639-3.16 0-4.296 2.486-1.136 2.485-1.136 7.172 0 3.48.568 5.503.568 2.024 1.846 2.947 1.279.888 3.409.888 3.622 0 7.314-1.136l.32 1.988q-1.776 1.172-3.977 1.846-2.166.675-4.545.675Zm17.718-8.095-1.492 4.509 3.48 1.065v2.024h-10.687v-1.988l3.586-1.137 9.338-27.34 3.55-.638 10.049 27.978 3.55 1.101v2.024h-12.746v-2.024l3.124-.958-1.562-4.616h-10.19Zm9.267-2.557-4.332-12.072-4.083 12.072h8.415Zm41.187 9.551q-3.16.853-5.362.853-1.526 0-2.84-.746-1.278-.746-1.527-1.988-1.775 1.242-4.119 2.13-2.343.852-4.473.852-3.231 0-4.687-1.633-1.42-1.633-1.42-4.119v-15.267l-4.084-.569v-1.917l8.06-1.882h1.811v18.286q0 1.74.746 2.556.745.817 2.698.817 1.1 0 2.592-.462 1.527-.497 2.663-1.136v-15.693l-4.048-.569v-1.917l7.99-1.882h1.881v21.197l4.119 1.208v1.881Zm17.15 0q-1.492.462-3.729.746-2.237.32-3.55.32-2.45 0-3.374-1.101-.923-1.1-.923-2.84v-17.754h-3.586v-2.13l4.083-1.633 2.628-4.971h2.663v5.503h6.497v3.586l-6.497-.39v17.504l5.787 1.066v2.094Zm31.493.604h-13.35v-2.024l3.408-1.172v-15.054q0-1.243-.32-1.882-.283-.639-1.1-.888-.817-.248-2.414-.248-3.231 0-5.433.675v17.397l3.373 1.172v2.024H230.85v-2.201l4.118-.995v-28.653l-4.047-.568v-1.917l7.988-1.953h1.882v13.386q1.563-.746 4.119-1.385 2.592-.604 4.722-.604 2.734 0 4.51 1.243 1.775 1.278 1.775 3.977v16.474l4.083 1.172v2.024Z"/><path fill="#0075FF" d="M56.177 137.37h24.041v24.041l14.958 14.958v-53.957H41.22zm22.822 25.26H54.958V138.59L40 123.63v53.957h53.957z"/></svg>