<svg data-v-423bf9ae="" xmlns="http://www.w3.org/2000/svg" viewBox="0 0 247.64480822354494 60" class="font"><!----><!----><!----><g data-v-423bf9ae="" id="625deca3-6ae2-4de2-a419-311f9fcc5605" fill="black" transform="matrix(5.791505813598633,0,0,5.791505813598633,-2.4324305057525635,-20.27027130126953)"><path d="M3.70 13.86Q1.96 13.86 1.19 12.91Q0.42 11.96 0.42 10.30L0.42 10.30Q0.42 8.44 1.27 7.57Q2.11 6.71 3.56 6.71L3.56 6.71Q4.98 6.71 5.64 7.35Q6.30 7.99 6.30 9.37L6.30 9.37Q6.30 9.84 6.26 10.22L6.26 10.22L2.18 10.22L2.18 10.60Q2.18 11.82 2.68 12.37Q3.18 12.92 4.13 12.92L4.13 12.92Q4.97 12.92 6.12 12.60L6.12 12.60L6.23 13.15Q5.17 13.86 3.70 13.86L3.70 13.86ZM2.21 9.55L4.62 9.41L4.62 9.10Q4.62 8.34 4.40 7.96Q4.19 7.57 3.63 7.57L3.63 7.57Q2.86 7.57 2.56 8.04Q2.25 8.51 2.21 9.55L2.21 9.55ZM10.28 13.86Q8.67 13.86 7.90 12.87Q7.13 11.89 7.13 10.30L7.13 10.30Q7.13 8.68 7.89 7.69Q8.65 6.71 10.28 6.71L10.28 6.71Q10.95 6.71 11.51 6.81Q12.07 6.92 12.66 7.14L12.66 7.14L12.39 9.02L11.69 9.02L11.38 7.74Q10.92 7.56 10.42 7.56L10.42 7.56Q9.53 7.56 9.21 8.26Q8.89 8.96 8.89 10.28L8.89 10.28Q8.89 11.26 9.05 11.83Q9.21 12.40 9.57 12.66Q9.93 12.91 10.53 12.91L10.53 12.91Q11.55 12.91 12.59 12.59L12.59 12.59L12.68 13.15Q12.18 13.48 11.56 13.67Q10.95 13.86 10.28 13.86L10.28 13.86ZM15.27 11.58L14.85 12.85L15.83 13.15L15.83 13.72L12.82 13.72L12.82 13.16L13.83 12.84L16.46 5.14L17.46 4.96L20.29 12.84L21.29 13.15L21.29 13.72L17.70 13.72L17.70 13.15L18.58 12.88L18.14 11.58L15.27 11.58ZM17.88 10.86L16.66 7.46L15.51 10.86L17.88 10.86ZM29.48 13.55Q28.59 13.79 27.97 13.79L27.97 13.79Q27.54 13.79 27.17 13.58Q26.81 13.37 26.74 13.02L26.74 13.02Q26.24 13.37 25.58 13.62Q24.92 13.86 24.32 13.86L24.32 13.86Q23.41 13.86 23.00 13.40Q22.60 12.94 22.60 12.24L22.60 12.24L22.60 7.94L21.45 7.78L21.45 7.24L23.72 6.71L24.23 6.71L24.23 11.86Q24.23 12.35 24.44 12.58Q24.65 12.81 25.20 12.81L25.20 12.81Q25.51 12.81 25.93 12.68Q26.36 12.54 26.68 12.36L26.68 12.36L26.68 7.94L25.54 7.78L25.54 7.24L27.79 6.71L28.32 6.71L28.32 12.68L29.48 13.02L29.48 13.55ZM34.31 13.55Q33.89 13.68 33.26 13.76Q32.63 13.85 32.26 13.85L32.26 13.85Q31.57 13.85 31.31 13.54Q31.05 13.23 31.05 12.74L31.05 12.74L31.05 7.74L30.04 7.74L30.04 7.14L31.19 6.68L31.93 5.28L32.68 5.28L32.68 6.83L34.51 6.83L34.51 7.84L32.68 7.73L32.68 12.66L34.31 12.96L34.31 13.55ZM43.18 13.72L39.42 13.72L39.42 13.15L40.38 12.82L40.38 8.58Q40.38 8.23 40.29 8.05Q40.21 7.87 39.98 7.80Q39.75 7.73 39.30 7.73L39.30 7.73Q38.39 7.73 37.77 7.92L37.77 7.92L37.77 12.82L38.72 13.15L38.72 13.72L34.97 13.72L34.97 13.10L36.13 12.82L36.13 4.75L34.99 4.59L34.99 4.05L37.24 3.50L37.77 3.50L37.77 7.27Q38.21 7.06 38.93 6.88Q39.66 6.71 40.26 6.71L40.26 6.71Q41.03 6.71 41.53 7.06Q42.03 7.42 42.03 8.18L42.03 8.18L42.03 12.82L43.18 13.15L43.18 13.72Z"></path></g><!----><!----></svg>